<?xml version="1.0" encoding="UTF-8" standalone="no"?>
<svg width="233px" height="79px" viewBox="0 0 233 79" version="1.1" xmlns="http://www.w3.org/2000/svg" xmlns:xlink="http://www.w3.org/1999/xlink" xmlns:sketch="http://www.bohemiancoding.com/sketch/ns">
    <!-- Generator: Sketch 3.4.4 (17249) - http://www.bohemiancoding.com/sketch -->
    <title>Slice 1</title>
    <desc>Created with Sketch.</desc>
    <defs></defs>
    <g id="Page-1" stroke="none" stroke-width="1" fill="none" fill-rule="evenodd" sketch:type="MSPage">
        <path d="M-0.224,57.648 C-0.224,62.5440245 1.0959868,66.287987 3.736,68.88 C6.3760132,71.472013 10.1279757,72.768 14.992,72.768 C18.000015,72.768 20.6639884,72.2000057 22.984,71.064 C25.3040116,69.9279943 27.2559921,68.3840098 28.84,66.432 C30.4240079,64.4799902 31.6319958,62.2240128 32.464,59.664 C33.2960042,57.1039872 33.712,54.4160141 33.712,51.6 C33.712,49.199988 33.3520036,47.0880091 32.632,45.264 C31.9119964,43.4399909 30.8960066,41.9040062 29.584,40.656 C28.2719934,39.4079938 26.6720094,38.4720031 24.784,37.848 C22.8959906,37.2239969 20.8000115,36.912 18.496,36.912 C15.6159856,36.912 13.0160116,37.4719944 10.696,38.592 C8.3759884,39.7120056 6.40800808,41.2239905 4.792,43.128 C3.17599192,45.0320095 1.93600432,47.2319875 1.072,49.728 C0.20799568,52.2240125 -0.224,54.8639861 -0.224,57.648 L-0.224,57.648 Z M7.312,57.648 C7.312,56.0159918 7.53599776,54.3440086 7.984,52.632 C8.43200224,50.9199914 9.11199544,49.368007 10.024,47.976 C10.9360046,46.583993 12.1039929,45.4480044 13.528,44.568 C14.9520071,43.6879956 16.6239904,43.248 18.544,43.248 C19.952007,43.248 21.1359952,43.4879976 22.096,43.968 C23.0560048,44.4480024 23.839997,45.087996 24.448,45.888 C25.056003,46.688004 25.4959986,47.6239946 25.768,48.696 C26.0400014,49.7680054 26.176,50.9119939 26.176,52.128 C26.176,53.7600082 25.9440023,55.4239915 25.48,57.12 C25.0159977,58.8160085 24.3200046,60.359993 23.392,61.752 C22.4639954,63.144007 21.3120069,64.2799956 19.936,65.16 C18.5599931,66.0400044 16.9440093,66.48 15.088,66.48 C13.7119931,66.48 12.5360049,66.2400024 11.56,65.76 C10.5839951,65.2799976 9.78400312,64.6320041 9.16,63.816 C8.53599688,62.9999959 8.07200152,62.0640053 7.768,61.008 C7.46399848,59.9519947 7.312,58.8320059 7.312,57.648 L7.312,57.648 Z M46.672,53.232 L48.688,43.584 L55.84,43.584 C56.5760037,43.584 57.2799966,43.6319995 57.952,43.728 C58.6240034,43.8240005 59.2159974,44.0159986 59.728,44.304 C60.2400026,44.5920014 60.6479985,45.0159972 60.952,45.576 C61.2560015,46.1360028 61.408,46.8799954 61.408,47.808 C61.408,48.7680048 61.1920022,49.5919966 60.76,50.28 C60.3279978,50.9680034 59.7520036,51.5279978 59.032,51.96 C58.3119964,52.3920022 57.4880046,52.711999 56.56,52.92 C55.6319954,53.128001 54.6560051,53.232 53.632,53.232 L46.672,53.232 Z M42.352,37.728 L35.2,72 L42.688,72 L45.52,58.608 L52.624,58.608 C53.3600037,58.608 54.031997,58.6639994 54.64,58.776 C55.248003,58.8880006 55.7679978,59.1039984 56.2,59.424 C56.6320022,59.7440016 56.9679988,60.1679974 57.208,60.696 C57.4480012,61.2240026 57.568,61.9039958 57.568,62.736 C57.568,63.8880058 57.5040006,65.0479942 57.376,66.216 C57.2479994,67.3840058 57.184,68.5439942 57.184,69.696 C57.184,70.0800019 57.2159997,70.4559982 57.28,70.824 C57.3440003,71.1920018 57.4239995,71.5839979 57.52,72 L64.864,72 C64.671999,71.4879974 64.5440003,70.8880034 64.48,70.2 C64.4159997,69.5119966 64.384,68.7840038 64.384,68.016 C64.384,66.9599947 64.4239996,65.8960054 64.504,64.824 C64.5840004,63.7519946 64.624,62.8320038 64.624,62.064 C64.624,60.6879931 64.3840024,59.4480055 63.904,58.344 C63.4239976,57.2399945 62.480007,56.4640022 61.072,56.016 L61.072,55.92 C62.2240058,55.7599992 63.2799952,55.4080027 64.24,54.864 C65.2000048,54.3199973 66.0319965,53.6400041 66.736,52.824 C67.4400035,52.0079959 67.9839981,51.0720053 68.368,50.016 C68.7520019,48.9599947 68.944,47.8560058 68.944,46.704 C68.944,45.0399917 68.7040024,43.6320058 68.224,42.48 C67.7439976,41.3279942 67.0560045,40.3920036 66.16,39.672 C65.2639955,38.9519964 64.1840063,38.4400015 62.92,38.136 C61.6559937,37.8319985 60.2560077,37.6959998 58.72,37.728 L42.352,37.728 Z M86.56,37.728 L66.352,72 L74.272,72 L78.592,64.368 L91.408,64.368 L92.512,72 L100,72 L94.288,37.728 L86.56,37.728 Z M81.568,58.752 L88.96,45.12 L89.056,45.12 L90.736,58.752 L81.568,58.752 Z M109.936,37.728 L102.736,72 L109.84,72 L114.976,44.736 L115.072,44.736 L118.384,72 L124.144,72 L138.64,44.736 L138.736,44.736 L132.496,72 L139.552,72 L146.8,37.728 L136.288,37.728 L123.088,62.544 L122.992,62.544 L120.352,37.728 L109.936,37.728 Z M162.976,37.728 L142.768,72 L150.688,72 L155.008,64.368 L167.824,64.368 L168.928,72 L176.416,72 L170.704,37.728 L162.976,37.728 Z M157.984,58.752 L165.376,45.12 L165.472,45.12 L167.152,58.752 L157.984,58.752 Z" id="ORAMA" fill="#000000" sketch:type="MSShapeGroup"></path>
        <path d="M188.792,41.2 L189.352,38.528 L192.008,38.528 C192.413335,38.528 192.735999,38.6106658 192.976,38.776 C193.216001,38.9413342 193.336,39.2479978 193.336,39.696 C193.336,40.1973358 193.168002,40.5733321 192.832,40.824 C192.495998,41.0746679 192.098669,41.2 191.64,41.2 L188.792,41.2 Z M187.336,36.576 L184.952,48 L191.032,48 C191.608003,48 192.157331,47.9200008 192.68,47.76 C193.202669,47.5999992 193.666665,47.3653349 194.072,47.056 C194.477335,46.7466651 194.799999,46.3573357 195.04,45.888 C195.280001,45.4186643 195.4,44.8746698 195.4,44.256 C195.4,43.7013306 195.253335,43.2133354 194.96,42.792 C194.666665,42.3706646 194.248003,42.0853341 193.704,41.936 L193.704,41.904 C194.045335,41.8613331 194.346665,41.7600008 194.608,41.6 C194.869335,41.4399992 195.093332,41.2400012 195.28,41 C195.466668,40.7599988 195.608,40.4880015 195.704,40.184 C195.8,39.8799985 195.848,39.5680016 195.848,39.248 C195.848,38.7039973 195.762668,38.2586684 195.592,37.912 C195.421332,37.5653316 195.176002,37.2933343 194.856,37.096 C194.535998,36.8986657 194.146669,36.762667 193.688,36.688 C193.229331,36.613333 192.712003,36.576 192.136,36.576 L187.336,36.576 Z M187.768,46.048 L188.44,42.912 L190.904,42.912 C191.128001,42.912 191.357332,42.9226666 191.592,42.944 C191.826668,42.9653334 192.039999,43.0213329 192.232,43.112 C192.424001,43.2026671 192.581333,43.3333325 192.704,43.504 C192.826667,43.6746675 192.888,43.9093318 192.888,44.208 C192.888,44.816003 192.704002,45.2746651 192.336,45.584 C191.967998,45.8933349 191.496003,46.048 190.92,46.048 L187.768,46.048 Z M198.888,36.576 L196.504,48 L205.304,48 L205.752,45.888 L199.448,45.888 L200.04,43.088 L205.784,43.088 L206.2,41.136 L200.456,41.136 L200.968,38.688 L207.176,38.688 L207.608,36.576 L198.888,36.576 Z M211.672,38.688 L209.72,48 L212.248,48 L214.2,38.688 L217.624,38.688 L218.072,36.576 L208.536,36.576 L208.088,38.688 L211.672,38.688 Z M221.048,36.576 L214.312,48 L216.952,48 L218.392,45.456 L222.664,45.456 L223.032,48 L225.528,48 L223.624,36.576 L221.048,36.576 Z M219.384,43.584 L221.848,39.04 L221.88,39.04 L222.44,43.584 L219.384,43.584 Z" id="BETA" fill="#000000" sketch:type="MSShapeGroup"></path>
    </g>
</svg>